<svg viewBox="0 0 999.251 923.195" xmlns="http://www.w3.org/2000/svg" xmlns:xlink="http://www.w3.org/1999/xlink" width="999.250977" height="923.195312" fill="none" customFrame="#000000">
	<path id="Vector" d="M262.063 294.173C262.063 284.386 298.602 0 298.602 0L402.19 254.969L572.775 16.3679L490.576 300.754L749.546 241.919L502.738 395.53L691.618 575.296L463.106 483.782L527.062 758.381L377.761 529.567L210.217 791.061L262.011 483.782L0 503.413L237.634 395.53L0 209.183L262.063 294.173Z" fill="rgb(188,236,48)" fill-rule="nonzero" transform="matrix(-0.316421,0.948619,-0.963363,-0.268199,999.251,212.162)" />
	<path id="Vector" d="M298.602 0L402.19 254.969L572.775 16.3679L490.576 300.754L749.546 241.919L502.738 395.53L691.618 575.296L463.106 483.782L527.062 758.381L377.761 529.567L210.217 791.061L262.011 483.782L0 503.413L237.634 395.53L0 209.183L262.063 294.173C262.063 284.386 298.602 0 298.602 0Z" fill-rule="nonzero" stroke="rgb(32,32,39)" stroke-linecap="round" stroke-width="1" transform="matrix(-0.316421,0.948619,-0.963363,-0.268199,999.251,212.162)" />
</svg>
